<svg width="16" height="16" viewBox="0 0 16 16" fill="none" xmlns="http://www.w3.org/2000/svg">
<g clip-path="url(#clip0)">
<path d="M14.2501 1.98437C14.2501 1.7255 14.0402 1.51562 13.7814 1.51562H11.9064C11.7606 1.51562 11.6304 1.58216 11.5444 1.6865L14.2501 4.03852V1.98437Z" fill="#333333"/>
<path d="M15.8388 6.66183L8.30754 0.114961C8.13117 -0.0383203 7.86886 -0.0383203 7.69248 0.114961L0.161232 6.66183C-0.0341433 6.83168 -0.054862 7.12777 0.114982 7.32315C0.284825 7.51855 0.580919 7.53924 0.776294 7.3694L1.62501 6.63159V15.0625H1.28126C1.02239 15.0625 0.812513 15.2723 0.812513 15.5312C0.812513 15.7901 1.02239 16 1.28126 16H14.7188C14.9776 16 15.1875 15.7901 15.1875 15.5312C15.1875 15.2723 14.9776 15.0625 14.7188 15.0625H14.2513V6.52405L15.2238 7.3694C15.3125 7.44655 15.422 7.4844 15.5311 7.48437C15.6621 7.48437 15.7924 7.42977 15.885 7.32315C16.0549 7.12774 16.0342 6.83168 15.8388 6.66183ZM12.3125 8.90727C12.3125 9.40871 12.1009 9.86874 11.75 10.2265V13.6875C11.75 13.9464 11.5401 14.1562 11.2813 14.1562H4.59504C4.33617 14.1562 4.12629 13.9464 4.12629 13.6875V10.2265C3.77539 9.86874 3.56379 9.40871 3.56379 8.90727V7.21874C3.56379 6.95987 3.77367 6.74999 4.03254 6.74999H6.18751V6.07733C6.18751 5.6039 6.57748 5.21874 7.05686 5.21874H8.81945C9.29879 5.21874 9.68876 5.6039 9.68876 6.07733V6.74999H11.8438C12.1026 6.74999 12.3125 6.95987 12.3125 7.21874V8.90727Z" fill="#333333"/>
<path d="M7.46948 10.061H8.40698V10.9985H7.46948V10.061Z" fill="#333333"/>
<path d="M7.125 6.15625H8.75128V6.75H7.125V6.15625Z" fill="#333333"/>
<path d="M9.34436 10.9685V11.4674C9.34436 11.7263 9.13448 11.9362 8.8756 11.9362H7.0006C6.74172 11.9362 6.53185 11.7263 6.53185 11.4674V10.9685H5.98529C5.6591 10.9685 5.348 10.913 5.06372 10.813V13.2185H10.8125V10.813C10.5282 10.913 10.2171 10.9685 9.89092 10.9685H9.34436Z" fill="#333333"/>
<path d="M4.50122 8.90728C4.50122 9.51653 5.18085 10.0313 5.98529 10.0313H6.53185V9.59269C6.53185 9.33381 6.74172 9.12394 7.0006 9.12394H8.8756C9.13448 9.12394 9.34435 9.33381 9.34435 9.59269V10.0313H9.89092C10.6954 10.0313 11.375 9.51653 11.375 8.90728V7.6875H4.50122V8.90728Z" fill="#333333"/>
</g>
<defs>
<clipPath id="clip0">
<rect width="16" height="16" fill="white"/>
</clipPath>
</defs>
</svg>
