<svg width="16" height="16" viewBox="0 0 16 16" fill="none" xmlns="http://www.w3.org/2000/svg">
<path d="M10.6057 8.08183L15.9997 11.4918V4.52783L10.6057 8.08183Z" fill="#333333"/>
<path d="M0 4.52783V11.4918L5.394 8.08183L0 4.52783Z" fill="#333333"/>
<path d="M15.0003 2.5H1.00027C0.501273 2.5 0.105273 2.872 0.0302734 3.351L8.00027 8.602L15.9703 3.351C15.8953 2.872 15.4993 2.5 15.0003 2.5Z" fill="#333333"/>
<path d="M9.68998 8.68606L8.27498 9.61806C8.19098 9.67306 8.09598 9.70006 7.99998 9.70006C7.90398 9.70006 7.80898 9.67306 7.72498 9.61806L6.30998 8.68506L0.0319824 12.6561C0.108982 13.1311 0.502982 13.5001 0.999983 13.5001H15C15.497 13.5001 15.891 13.1311 15.968 12.6561L9.68998 8.68606Z" fill="#333333"/>
</svg>
