<svg width="16" height="16" viewBox="0 0 16 16" fill="none" xmlns="http://www.w3.org/2000/svg">
<g clip-path="url(#clip0)">
<path d="M15.5877 11.8057L13.5991 9.81672C13.0686 9.28616 12.1416 9.28525 11.6102 9.81672L11.2786 10.1483L15.2562 14.1257L15.5877 13.7942C16.1383 13.2436 16.1364 12.3535 15.5877 11.8057Z" fill="#333333"/>
<path d="M10.5976 10.7926C10.1792 11.1168 9.58222 11.1038 9.19988 10.7207L5.2681 6.78616C4.88489 6.40294 4.87198 5.80557 5.19613 5.38816L1.22767 1.41992C-0.479543 3.40992 -0.412793 6.40844 1.47142 8.29266L7.69338 14.5173C9.5015 16.3254 12.4632 16.5652 14.5662 14.761L10.5976 10.7926Z" fill="#333333"/>
<path d="M6.17212 2.38723L4.1836 0.398261C3.65303 -0.1323 2.72607 -0.133207 2.19463 0.398261L1.86304 0.729854L5.84065 4.70725L6.17212 4.37575C6.72268 3.82519 6.72087 2.93507 6.17212 2.38723Z" fill="#333333"/>
</g>
<defs>
<clipPath id="clip0">
<rect width="16" height="16" fill="white"/>
</clipPath>
</defs>
</svg>
