<svg width="20" height="20" viewBox="0 0 20 20" fill="none" xmlns="http://www.w3.org/2000/svg">
<g clip-path="url(#clip0)">
<path d="M19.2959 11.5773C19.8926 6.55478 19.0092 3.38394 17.4159 1.94978L17.4167 1.94894C14.8451 -0.500224 6.16007 -0.862724 3.0834 2.05894C1.70173 3.48811 1.21507 5.58561 1.16173 8.18228C1.1084 10.7798 1.04507 15.6456 5.57923 16.9656H5.5834L5.57923 18.9814C5.57923 18.9814 5.5484 19.7981 6.07007 19.9623C6.66673 20.1556 6.93673 19.7764 8.79257 17.5598C11.8959 17.8289 14.2792 17.2123 14.5501 17.1223C15.1767 16.9123 18.7226 16.4431 19.2959 11.5773ZM9.0984 16.1414C9.0984 16.1414 7.13423 18.5906 6.5234 19.2264C6.3234 19.4331 6.10423 19.4139 6.10757 19.0039C6.10757 18.7348 6.12257 15.6573 6.12257 15.6573C2.2784 14.5556 2.50507 10.4123 2.54673 8.24478C2.5884 6.07644 2.98507 4.30061 4.15507 3.10478C6.85423 0.573943 14.4684 1.13978 16.4084 2.96311C18.7801 5.06561 17.9359 11.0056 17.9409 11.2081C17.4534 15.2698 14.5801 15.5273 14.0517 15.7031C13.8259 15.7781 11.7301 16.3173 9.0984 16.1414Z" fill="white"/>
<path d="M10.1851 3.58057C9.86425 3.58057 9.86425 4.08057 10.1851 4.08473C12.6742 4.1039 14.7242 5.8389 14.7467 9.0214C14.7467 9.35724 15.2384 9.35307 15.2342 9.01724H15.2334C15.2067 5.58807 12.9684 3.59973 10.1851 3.58057Z" fill="white"/>
<path d="M13.4592 8.49371C13.4517 8.82537 13.9425 8.84121 13.9467 8.50537C13.9875 6.61454 12.8217 5.05704 10.6309 4.89288C10.31 4.86954 10.2767 5.37371 10.5967 5.39704C12.4967 5.54121 13.4975 6.83787 13.4592 8.49371Z" fill="white"/>
<path d="M12.9343 10.6448C12.5226 10.4064 12.1034 10.5548 11.9301 10.7889L11.5676 11.2581C11.3834 11.4964 11.0393 11.4648 11.0393 11.4648C8.52759 10.8006 7.85593 8.17226 7.85593 8.17226C7.85593 8.17226 7.82509 7.81643 8.05509 7.62559L8.50843 7.25059C8.73509 7.07059 8.87843 6.63726 8.64759 6.21143C8.03093 5.09726 7.61676 4.71309 7.40593 4.41809C7.18426 4.14059 6.85093 4.07809 6.50426 4.26559H6.49676C5.77593 4.68726 4.98676 5.47643 5.23926 6.28893C5.6701 7.14559 6.46176 9.87643 8.98509 11.9398C10.1709 12.9156 12.0476 13.9156 12.8443 14.1464L12.8518 14.1581C13.6368 14.4198 14.4001 13.5998 14.8076 12.8573V12.8514C14.9884 12.4923 14.9284 12.1523 14.6643 11.9298C14.1959 11.4731 13.4893 10.9689 12.9343 10.6448Z" fill="white"/>
<path d="M10.9742 6.75324C11.7751 6.7999 12.1634 7.21824 12.2051 8.0774C12.2201 8.41324 12.7076 8.38991 12.6926 8.05407C12.6393 6.9324 12.0543 6.3074 11.0009 6.24907C10.6801 6.2299 10.6501 6.73407 10.9742 6.75324Z" fill="white"/>
</g>
<defs>
<clipPath id="clip0">
<rect width="20" height="20" fill="white"/>
</clipPath>
</defs>
</svg>
