<svg width="20" height="20" fill="none" xmlns="http://www.w3.org/2000/svg"><g clip-path="url(#clip0)" fill="#fff"><path d="M19.296 11.577c.597-5.022-.287-8.193-1.88-9.627v-.001c-2.57-2.45-11.256-2.812-14.333.11-1.381 1.43-1.868 3.527-1.921 6.123-.054 2.598-.117 7.464 4.417 8.784h.004L5.58 18.98s-.03.817.491.981c.597.194.867-.186 2.723-2.402 3.103.269 5.486-.348 5.757-.438.627-.21 4.173-.679 4.746-5.545zM9.098 16.141s-1.964 2.45-2.575 3.085c-.2.207-.419.188-.415-.222 0-.27.015-3.347.015-3.347-3.845-1.101-3.618-5.245-3.576-7.412.041-2.169.438-3.944 1.608-5.14 2.7-2.531 10.313-1.965 12.253-.142 2.372 2.103 1.528 8.043 1.533 8.245-.488 4.062-3.36 4.32-3.89 4.495-.225.075-2.32.614-4.953.438z"/><path d="M10.185 3.58c-.32 0-.32.5 0 .505 2.49.019 4.54 1.754 4.562 4.936 0 .336.491.332.487-.004-.027-3.429-2.266-5.417-5.049-5.436z"/><path d="M13.46 8.494c-.008.331.482.347.487.011.04-1.89-1.125-3.448-3.316-3.612-.321-.023-.354.48-.034.504 1.9.144 2.9 1.44 2.862 3.097zm-.526 2.151c-.411-.239-.83-.09-1.004.144l-.362.47c-.185.237-.529.206-.529.206-2.511-.664-3.183-3.293-3.183-3.293s-.03-.356.2-.546l.452-.375c.227-.18.37-.614.14-1.04-.617-1.114-1.031-1.498-1.242-1.793-.222-.277-.555-.34-.902-.152h-.007c-.721.421-1.51 1.21-1.258 2.023.431.857 1.223 3.587 3.746 5.65 1.186.977 3.063 1.977 3.86 2.207l.007.012c.785.262 1.548-.558 1.956-1.3v-.007c.18-.359.12-.699-.144-.921-.468-.457-1.175-.961-1.73-1.285z"/><path d="M10.974 6.753c.801.047 1.19.465 1.231 1.324.015.336.503.313.488-.023-.054-1.122-.639-1.747-1.692-1.805-.32-.02-.35.485-.027.504z"/></g><defs><clipPath id="clip0"><path fill="#fff" d="M0 0h20v20H0z"/></clipPath></defs></svg>