<svg width="20" height="20" fill="none" xmlns="http://www.w3.org/2000/svg"><path fill-rule="evenodd" clip-rule="evenodd" d="M16.632 3.34A9.23 9.23 0 0010.06.615C4.94.615.77 4.783.77 9.905c0 1.638.427 3.237 1.24 4.646L.691 19.365l4.925-1.292a9.282 9.282 0 004.44 1.131h.004c5.12 0 9.29-4.168 9.291-9.29a9.234 9.234 0 00-2.719-6.574zM10.06 17.635h-.003a7.714 7.714 0 01-3.93-1.076l-.282-.168-2.923.767.78-2.85-.184-.292a7.703 7.703 0 01-1.18-4.11c.001-4.258 3.466-7.722 7.725-7.722a7.67 7.67 0 015.46 2.265 7.677 7.677 0 012.26 5.464c-.002 4.258-3.466 7.722-7.723 7.722zm4.236-5.784c-.232-.116-1.373-.677-1.586-.755-.213-.078-.368-.116-.523.116-.154.232-.6.755-.735.91-.135.155-.27.175-.503.059-.232-.117-.98-.362-1.867-1.153-.69-.615-1.156-1.376-1.291-1.608-.135-.232-.001-.346.102-.474.251-.312.503-.639.58-.794.077-.155.039-.29-.02-.407-.057-.116-.522-1.258-.715-1.723-.189-.453-.38-.392-.522-.399a9.281 9.281 0 00-.445-.008.853.853 0 00-.62.29c-.212.233-.812.795-.812 1.937 0 1.143.832 2.247.948 2.402.116.155 1.637 2.5 3.966 3.505.554.24.986.382 1.323.49a3.183 3.183 0 001.463.091c.446-.066 1.373-.561 1.567-1.104.193-.542.193-1.007.135-1.104-.058-.096-.213-.155-.445-.27z" fill="#fff"/></svg>